<svg width="50" height="50" viewBox="0 0 50 50" fill="none" xmlns="http://www.w3.org/2000/svg">
<path d="M17.1875 10.9375C18.4307 10.9375 19.623 11.4314 20.502 12.3104C21.3812 13.1895 21.875 14.3818 21.875 15.625V34.375C21.875 35.6182 21.3812 36.8105 20.502 37.6895C19.623 38.5687 18.4307 39.0625 17.1875 39.0625C15.9443 39.0625 14.752 38.5687 13.8729 37.6895C12.9939 36.8105 12.5 35.6182 12.5 34.375V15.625C12.5 14.3818 12.9939 13.1895 13.8729 12.3104C14.752 11.4314 15.9443 10.9375 17.1875 10.9375ZM32.8125 10.9375C34.0557 10.9375 35.248 11.4314 36.127 12.3104C37.0062 13.1895 37.5 14.3818 37.5 15.625V34.375C37.5 35.6182 37.0062 36.8105 36.127 37.6895C35.248 38.5687 34.0557 39.0625 32.8125 39.0625C31.5693 39.0625 30.377 38.5687 29.498 37.6895C28.6188 36.8105 28.125 35.6182 28.125 34.375V15.625C28.125 14.3818 28.6188 13.1895 29.498 12.3104C30.377 11.4314 31.5693 10.9375 32.8125 10.9375Z" fill="black"/>
</svg>
